<svg width="27" height="27" viewBox="0 0 27 27" fill="none" xmlns="http://www.w3.org/2000/svg">
<path d="M0 3C0 1.34315 1.34315 0 3 0H24C25.6569 0 27 1.34315 27 3V24C27 25.6569 25.6569 27 24 27H3C1.34315 27 0 25.6569 0 24V3Z" fill="#159800"/>
<path d="M7.17969 8.39258V13.7129C7.17969 14.3379 7.29688 14.8574 7.53125 15.2715C7.87891 15.8965 8.46484 16.209 9.28906 16.209C10.2773 16.209 10.9492 15.8711 11.3047 15.1953C11.4961 14.8281 11.5918 14.334 11.5918 13.7129V8.39258H12.7754V13.2266C12.7754 14.2852 12.6328 15.0996 12.3477 15.6699C11.8242 16.709 10.8359 17.2285 9.38281 17.2285C7.92969 17.2285 6.94336 16.709 6.42383 15.6699C6.13867 15.0996 5.99609 14.2852 5.99609 13.2266V8.39258H7.17969ZM15.5877 14.2227C15.615 14.7109 15.7302 15.1074 15.9334 15.4121C16.3201 15.9824 17.0017 16.2676 17.9783 16.2676C18.4158 16.2676 18.8142 16.2051 19.1736 16.0801C19.8689 15.8379 20.2166 15.4043 20.2166 14.7793C20.2166 14.3105 20.0701 13.9766 19.7771 13.7773C19.4802 13.582 19.0154 13.4121 18.3826 13.2676L17.2166 13.0039C16.4548 12.832 15.9158 12.6426 15.5994 12.4355C15.0525 12.0762 14.7791 11.5391 14.7791 10.8242C14.7791 10.0508 15.0466 9.41602 15.5818 8.91992C16.117 8.42383 16.8748 8.17578 17.8552 8.17578C18.7576 8.17578 19.5232 8.39453 20.1521 8.83203C20.7849 9.26562 21.1013 9.96094 21.1013 10.918H20.0056C19.947 10.457 19.822 10.1035 19.6306 9.85742C19.2752 9.4082 18.6716 9.18359 17.8201 9.18359C17.1326 9.18359 16.6384 9.32812 16.3377 9.61719C16.0369 9.90625 15.8865 10.2422 15.8865 10.625C15.8865 11.0469 16.0623 11.3555 16.4138 11.5508C16.6443 11.6758 17.1658 11.832 17.9783 12.0195L19.1853 12.2949C19.7673 12.4277 20.2166 12.6094 20.533 12.8398C21.0798 13.2422 21.3533 13.8262 21.3533 14.5918C21.3533 15.5449 21.0056 16.2266 20.3103 16.6367C19.6189 17.0469 18.8142 17.252 17.8962 17.252C16.8259 17.252 15.988 16.9785 15.3826 16.4316C14.7771 15.8887 14.4802 15.1523 14.492 14.2227H15.5877Z" fill="white"/>
</svg>
