<svg width="23" height="22" viewBox="0 0 23 22" fill="none" xmlns="http://www.w3.org/2000/svg">
<path d="M4.85352 10.5508V6.68674C4.86555 5.92721 5.03469 5.1774 5.35123 4.48029C5.66776 3.78317 6.12549 3.15245 6.69817 2.62426C7.27085 2.09607 7.94723 1.68079 8.68855 1.40223C9.42988 1.12366 10.2216 0.98728 11.0183 1.0009C11.815 0.98728 12.6067 1.12366 13.348 1.40223C14.0893 1.68079 14.7657 2.09607 15.3384 2.62426C15.9111 3.15245 16.3688 3.78317 16.6853 4.48029C17.0019 5.1774 17.171 5.92721 17.1831 6.68674V10.5508M14.0996 18.2641C14.9171 18.2641 15.7011 17.9545 16.2792 17.4034C16.8572 16.8524 17.182 16.105 17.182 15.3257V12.0199M14.0996 18.2641C14.0996 18.7512 13.8964 19.2183 13.5351 19.5627C13.1738 19.9071 12.6838 20.1006 12.1729 20.1006H9.86106C9.35012 20.1006 8.86011 19.9071 8.49883 19.5627C8.13754 19.2183 7.93457 18.7512 7.93457 18.2641C7.93457 17.777 8.13754 17.3099 8.49883 16.9655C8.86011 16.6211 9.35012 16.4276 9.86106 16.4276H12.1729C12.6838 16.4276 13.1738 16.6211 13.5351 16.9655C13.8964 17.3099 14.0996 17.777 14.0996 18.2641ZM2.54119 8.34696H4.08239C4.28676 8.34696 4.48277 8.42436 4.62728 8.56213C4.77179 8.69989 4.85298 8.88674 4.85298 9.08157V13.4892C4.85298 13.684 4.77179 13.8709 4.62728 14.0086C4.48277 14.1464 4.28676 14.2238 4.08239 14.2238H2.54119C2.13244 14.2238 1.74043 14.069 1.4514 13.7935C1.16238 13.518 1 13.1443 1 12.7546V9.81618C1 9.42652 1.16238 9.05282 1.4514 8.77729C1.74043 8.50176 2.13244 8.34696 2.54119 8.34696ZM19.4949 14.2238H17.9537C17.7494 14.2238 17.5534 14.1464 17.4089 14.0086C17.2643 13.8709 17.1832 13.684 17.1832 13.4892V9.08156C17.1832 8.88673 17.2643 8.69987 17.4089 8.56211C17.5534 8.42434 17.7494 8.34695 17.9537 8.34695H19.4949C19.9037 8.34695 20.2957 8.50174 20.5847 8.77727C20.8738 9.0528 21.0361 9.4265 21.0361 9.81616V12.7546C21.0361 13.1442 20.8738 13.5179 20.5847 13.7935C20.2957 14.069 19.9037 14.2238 19.4949 14.2238Z" stroke="#159800" stroke-width="2" stroke-linecap="round" stroke-linejoin="round"/>
</svg>
