<svg width="24" height="24" viewBox="0 0 24 24" fill="none" xmlns="http://www.w3.org/2000/svg">
<path fill-rule="evenodd" clip-rule="evenodd" d="M14.456 2.47362C13.695 2.16764 12.8657 2 12.0006 2C8.64459 2 5.82522 4.52345 5.4546 7.85899L5.2028 10.1252L5.19675 10.1793C5.08392 11.1625 4.76388 12.1106 4.25775 12.9611L4.22981 13.0077L3.65177 13.9711L3.62762 14.0114C3.3861 14.4138 3.16729 14.7785 3.02153 15.0879C2.87341 15.4024 2.71504 15.8286 2.79127 16.3117C2.86662 16.7893 3.1124 17.2233 3.48313 17.5337C3.8582 17.8476 4.30507 17.931 4.65096 17.9658C4.99133 18.0001 5.41659 18 5.88597 18L5.93287 18H18.0684L18.1153 18C18.5847 18 19.01 18.0001 19.3503 17.9658C19.6962 17.931 20.1431 17.8476 20.5182 17.5337C20.8889 17.2233 21.1347 16.7893 21.21 16.3117C21.2862 15.8286 21.1279 15.4024 20.9798 15.0879C20.834 14.7785 20.6152 14.4138 20.3736 14.0114L20.3495 13.9711L19.7715 13.0077L19.7435 12.9611C19.3648 12.3247 19.0903 11.6336 18.9288 10.914C18.628 10.9705 18.3178 11 18.0006 11C17.6167 11 17.2428 10.9567 16.8837 10.8748C17.0682 11.9715 17.4547 13.0259 18.0249 13.9839L18.0565 14.0367L18.6345 15.0001C18.908 15.456 19.0729 15.733 19.1704 15.9401C19.1757 15.9514 19.1806 15.9621 19.1851 15.972C19.1742 15.9733 19.1626 15.9746 19.1501 15.9759C18.9224 15.9988 18.6 16 18.0684 16H5.93287C5.40128 16 5.07891 15.9988 4.85116 15.9759C4.83871 15.9746 4.82706 15.9733 4.8162 15.972C4.82068 15.9621 4.82557 15.9514 4.83091 15.9401C4.92843 15.733 5.09325 15.456 5.36676 15.0001L5.94479 14.0367L5.97642 13.9839C6.62717 12.8904 7.03864 11.6714 7.18371 10.4073L7.19057 10.3461L7.44237 8.07985C7.70044 5.75718 9.66368 4 12.0006 4C12.4637 4 12.912 4.06898 13.3353 4.19767C13.5873 3.54594 13.9719 2.96023 14.456 2.47362ZM16.9828 4.27804C16.3948 4.62632 16.0006 5.26713 16.0006 6C16.0006 6.14503 16.0161 6.28645 16.0454 6.42272C16.1658 6.6476 16.2681 6.88404 16.3504 7.13021C16.7108 7.65547 17.3155 8 18.0006 8C18.1925 8 18.3781 7.97298 18.5537 7.92254L18.5467 7.85899C18.3944 6.48875 17.8289 5.25555 16.9828 4.27804Z" fill="#159800"/>
<path d="M9.10222 17.6647C9.27315 18.6215 9.64978 19.467 10.1737 20.0701C10.6976 20.6731 11.3396 21 12 21C12.6604 21 13.3024 20.6731 13.8263 20.0701C14.3502 19.467 14.7269 18.6215 14.8978 17.6647" stroke="#159800" stroke-width="2" stroke-linecap="round"/>
<circle cx="18" cy="6" r="2.5" fill="#159800" stroke="#159800"/>
</svg>
