<svg width="38" height="35" viewBox="0 0 38 35" fill="none" xmlns="http://www.w3.org/2000/svg">
<path d="M7.75586 18.6077C7.75586 16.6277 7.75586 15.6376 8.18158 14.7674C8.60729 13.8972 9.4068 13.2528 11.0058 11.9642L12.5569 10.7142C15.4471 8.38509 16.8922 7.22052 18.6136 7.22052C20.3349 7.22052 21.78 8.38509 24.6702 10.7142L26.2213 11.9642C27.8204 13.2528 28.6199 13.8972 29.0456 14.7674C29.4713 15.6376 29.4713 16.6277 29.4713 18.6077V24.7916C29.4713 27.5415 29.4713 28.9164 28.5627 29.7707C27.6541 30.625 26.1917 30.625 23.2669 30.625H13.9603C11.0355 30.625 9.57309 30.625 8.66447 29.7707C7.75586 28.9164 7.75586 27.5415 7.75586 24.7916V18.6077Z" fill="white"/>
</svg>
