<svg width="28" height="28" viewBox="0 0 28 28" fill="none" xmlns="http://www.w3.org/2000/svg">
<path d="M23.3327 14V20.5C23.3327 22.3856 23.3327 23.3284 22.7469 23.9142C22.1611 24.5 21.2183 24.5 19.3327 24.5H7.58268C5.97185 24.5 4.66602 23.1942 4.66602 21.5833V21.5833C4.66602 19.9725 5.97185 18.6667 7.58268 18.6667H19.3327C21.2183 18.6667 22.1611 18.6667 22.7469 18.0809C23.3327 17.4951 23.3327 16.5523 23.3327 14.6667V7.5C23.3327 5.61438 23.3327 4.67157 22.7469 4.08579C22.1611 3.5 21.2183 3.5 19.3327 3.5H8.66601C6.7804 3.5 5.83759 3.5 5.2518 4.08579C4.66602 4.67157 4.66602 5.61438 4.66602 7.5V21.5833" stroke="#159800" stroke-width="2"/>
<path d="M10.5 11.6667L12.1262 13.2929C12.5168 13.6834 13.1499 13.6834 13.5404 13.2929L17.5 9.33334" stroke="#159800" stroke-width="2" stroke-linecap="round"/>
</svg>
