<svg width="20" height="20" viewBox="0 0 20 20" fill="none" xmlns="http://www.w3.org/2000/svg">
<path d="M17.2597 4.80818C16.8655 4.56645 16.357 4.62651 16.03 4.95342L13.8145 7.16808L13.8016 7.18121C13.7916 7.19162 13.7795 7.19991 13.7662 7.20558L14.1572 8.12595L13.7662 7.20559C13.7528 7.21126 13.7385 7.21419 13.7239 7.21419C13.7094 7.21419 13.695 7.21126 13.6817 7.20559L13.2906 8.12595L13.6817 7.20559C13.6683 7.19991 13.6563 7.19162 13.6462 7.18121C13.6291 7.16348 13.6114 7.14638 13.593 7.12996L12.7884 6.41032C12.7751 6.39205 12.7678 6.36997 12.7678 6.3472C12.7678 6.32001 12.7782 6.29381 12.7969 6.27391L15.0069 4.06464C15.2956 3.7761 15.3799 3.34111 15.22 2.96561C15.1143 2.7173 14.9552 2.49528 14.7542 2.31525C14.5532 2.13523 14.315 2.00158 14.0567 1.92376C14.0261 1.91454 13.9951 1.9068 13.9637 1.90055C13.0072 1.70986 12.0162 1.79149 11.1038 2.13614C10.1913 2.4808 9.39396 3.07466 8.80248 3.85016C8.211 4.62566 7.84921 5.55163 7.75832 6.52265C7.69068 7.24528 7.7751 7.97122 8.00295 8.65464L2.43234 14.1723C2.23285 14.368 2.07426 14.6014 1.96583 14.859C1.8569 15.1178 1.80078 15.3957 1.80078 15.6765C1.80078 15.9572 1.8569 16.2352 1.96583 16.4939C2.07392 16.7507 2.23184 16.9835 2.43043 17.1788L2.82257 17.5708C3.01794 17.7693 3.25073 17.9271 3.50748 18.0351C3.76625 18.1439 4.04415 18.2 4.32487 18.2C4.60559 18.2 4.8835 18.1439 5.14227 18.0351C5.39888 17.9271 5.63155 17.7694 5.82686 17.5711L11.4099 12.0003C12.0941 12.2161 12.8182 12.2893 13.5368 12.2123C14.4968 12.1095 15.4096 11.7424 16.1735 11.1519C16.9375 10.5614 17.5226 9.77064 17.8639 8.8675C18.2048 7.9654 18.289 6.98654 18.1072 6.03952C18.06 5.78718 17.9606 5.54749 17.8153 5.33583C17.6691 5.12293 17.4798 4.94316 17.2597 4.80818Z" stroke="#159800" stroke-width="2" stroke-linecap="round" stroke-linejoin="round"/>
</svg>
