<svg width="38" height="34" viewBox="0 0 38 34" fill="none" xmlns="http://www.w3.org/2000/svg">
<path d="M4.65234 11.5263C4.65234 8.69789 4.65234 7.28368 5.53102 6.405C6.4097 5.52632 7.82392 5.52632 10.6523 5.52632H26.5722C29.4006 5.52632 30.8148 5.52632 31.6935 6.405C32.5722 7.28368 32.5722 8.69789 32.5722 11.5263V12.6525C32.5722 12.8042 32.5722 12.88 32.564 12.9437C32.5058 13.3945 32.1509 13.7494 31.7001 13.8076C31.6364 13.8158 31.5606 13.8158 31.4089 13.8158H30.682C29.156 13.8158 27.9189 15.0529 27.9189 16.579V16.579C27.9189 18.105 29.156 19.3421 30.682 19.3421H31.4089C31.5606 19.3421 31.6364 19.3421 31.7001 19.3503C32.1509 19.4085 32.5058 19.7634 32.564 20.2142C32.5722 20.2779 32.5722 20.3537 32.5722 20.5054V21.6316C32.5722 24.46 32.5722 25.8742 31.6935 26.7529C30.8148 27.6316 29.4006 27.6316 26.5722 27.6316H10.6523C7.82392 27.6316 6.4097 27.6316 5.53102 26.7529C4.65234 25.8742 4.65234 24.46 4.65234 21.6316V20.5054C4.65234 20.3537 4.65234 20.2779 4.66056 20.2142C4.71871 19.7634 5.0736 19.4085 5.52442 19.3503C5.58812 19.3421 5.66397 19.3421 5.81567 19.3421H6.54249C8.06854 19.3421 9.30565 18.105 9.30565 16.579V16.579C9.30565 15.0529 8.06854 13.8158 6.54249 13.8158H5.81567C5.66397 13.8158 5.58812 13.8158 5.52442 13.8076C5.0736 13.7494 4.71871 13.3945 4.66056 12.9437C4.65234 12.88 4.65234 12.8042 4.65234 12.6525V11.5263Z" stroke="white" stroke-width="2"/>
<path d="M17.9264 14.7671C18.1872 14.1661 18.3176 13.8657 18.5294 13.824C18.5851 13.8131 18.6427 13.8131 18.6984 13.824C18.9103 13.8657 19.0406 14.1661 19.3014 14.7671C19.4497 15.1088 19.5239 15.2797 19.6626 15.3959C19.7016 15.4285 19.7438 15.4576 19.7888 15.4826C19.9491 15.572 20.1493 15.5885 20.5497 15.6217C21.2275 15.6778 21.5664 15.7058 21.6699 15.8845C21.6913 15.9214 21.7059 15.9615 21.713 16.0029C21.7473 16.2031 21.4982 16.4126 20.9999 16.8316L20.8615 16.948C20.6286 17.1439 20.5121 17.2418 20.4447 17.3641C20.4043 17.4374 20.3772 17.5164 20.3645 17.5978C20.3434 17.7336 20.3775 17.8757 20.4457 18.1599L20.4701 18.2614C20.5924 18.7711 20.6536 19.0259 20.5772 19.1512C20.5086 19.2637 20.3823 19.3357 20.2427 19.3419C20.0874 19.3488 19.8685 19.1839 19.4306 18.8541C19.1422 18.6368 18.9979 18.5282 18.8378 18.4858C18.6915 18.447 18.5363 18.447 18.39 18.4858C18.2299 18.5282 18.0857 18.6368 17.7972 18.8541C17.3594 19.1839 17.1405 19.3488 16.9851 19.3419C16.8456 19.3357 16.7192 19.2637 16.6506 19.1512C16.5743 19.0259 16.6354 18.7711 16.7578 18.2614L16.7822 18.1599C16.8504 17.8757 16.8845 17.7336 16.8633 17.5978C16.8506 17.5164 16.8235 17.4374 16.7831 17.3641C16.7157 17.2418 16.5993 17.1439 16.3663 16.948L16.2279 16.8316C15.7297 16.4126 15.4805 16.2031 15.5148 16.0029C15.5219 15.9615 15.5365 15.9214 15.558 15.8845C15.6614 15.7058 16.0003 15.6778 16.6781 15.6217C17.0785 15.5885 17.2787 15.572 17.4391 15.4826C17.484 15.4576 17.5263 15.4285 17.5652 15.3959C17.704 15.2797 17.7781 15.1088 17.9264 14.7671Z" fill="#CCD2E3" stroke="white"/>
</svg>
