<svg width="133" height="17" viewBox="0 0 133 17" fill="none" xmlns="http://www.w3.org/2000/svg">
<path d="M0 0.598311H1.52263V10.4946C1.52263 11.42 1.62712 12.2111 1.83611 12.8679C2.0451 13.5097 2.35112 14.0396 2.75417 14.4575C3.15722 14.8606 3.64983 15.1591 4.23201 15.3531C4.81419 15.5322 5.47101 15.6218 6.20247 15.6218C6.94886 15.6218 7.61315 15.5322 8.19533 15.3531C8.77751 15.1591 9.27012 14.8606 9.67317 14.4575C10.0762 14.0396 10.3822 13.5097 10.5912 12.8679C10.8002 12.2111 10.9047 11.42 10.9047 10.4946V0.598311H12.4273V10.8304C12.4273 11.6514 12.3079 12.435 12.0691 13.1813C11.8452 13.9127 11.4794 14.5546 10.9719 15.1068C10.4793 15.6591 9.83738 16.0995 9.04621 16.4278C8.26997 16.7413 7.32205 16.898 6.20247 16.898C5.09782 16.898 4.14991 16.7413 3.35874 16.4278C2.5825 16.0995 1.94061 15.6591 1.43306 15.1068C0.940447 14.5546 0.574718 13.9127 0.335874 13.1813C0.111958 12.435 0 11.6514 0 10.8304V0.598311Z" fill="white"/>
<path d="M17.4558 8.18842H23.1433C23.6061 8.18842 24.0464 8.12125 24.4644 7.98692C24.8824 7.83765 25.2481 7.62868 25.5616 7.36C25.8751 7.09133 26.1214 6.77041 26.3005 6.39725C26.4946 6.00916 26.5916 5.56883 26.5916 5.07625C26.5916 4.09111 26.308 3.31493 25.7407 2.74772C25.1735 2.18052 24.3077 1.89692 23.1433 1.89692H17.4558V8.18842ZM15.9332 0.598311H23.2553C23.9121 0.598311 24.5316 0.680407 25.1138 0.844599C25.7109 1.00879 26.2259 1.26254 26.6588 1.60585C27.1066 1.93423 27.4574 2.3671 27.7112 2.90445C27.9799 3.42688 28.1142 4.04633 28.1142 4.7628C28.1142 5.7778 27.853 6.65846 27.3305 7.40478C26.8081 8.15111 26.0318 8.62875 25.0018 8.83773V8.8825C25.5243 8.95714 25.9572 9.09894 26.3005 9.30791C26.6439 9.50195 26.92 9.7557 27.129 10.0692C27.3529 10.3826 27.5097 10.7483 27.5992 11.1663C27.7037 11.5693 27.7709 12.0096 27.8008 12.4872C27.8157 12.7559 27.8306 13.0843 27.8455 13.4724C27.8605 13.8605 27.8903 14.256 27.9351 14.659C27.9799 15.0471 28.0471 15.4203 28.1366 15.7785C28.2411 16.1218 28.3755 16.3905 28.5397 16.5846H26.8603C26.7707 16.4353 26.6961 16.2562 26.6364 16.0472C26.5916 15.8233 26.5543 15.5994 26.5244 15.3755C26.5095 15.1367 26.4946 14.9053 26.4796 14.6814C26.4647 14.4575 26.4498 14.2635 26.4349 14.0993C26.405 13.5321 26.3528 12.9724 26.2781 12.4201C26.2184 11.8529 26.0766 11.3528 25.8527 10.92C25.6437 10.4722 25.3302 10.1139 24.9122 9.84526C24.5092 9.57659 23.9494 9.45717 23.2329 9.48703H17.4558V16.5846H15.9332V0.598311Z" fill="white"/>
<path d="M32.8387 7.60629H38.0783C38.6904 7.60629 39.2203 7.53912 39.6681 7.40478C40.116 7.25552 40.4892 7.06147 40.7877 6.82265C41.0863 6.5689 41.3102 6.27783 41.4595 5.94945C41.6087 5.62107 41.6834 5.2703 41.6834 4.89714C41.6834 2.89699 40.4817 1.89692 38.0783 1.89692H32.8387V7.60629ZM31.3161 0.598311H38.0783C38.7501 0.598311 39.392 0.665481 40.004 0.799819C40.631 0.919231 41.1758 1.13566 41.6386 1.44912C42.1163 1.74765 42.4969 2.15067 42.7806 2.65816C43.0642 3.15074 43.206 3.77019 43.206 4.51651C43.206 4.93445 43.1388 5.34493 43.0045 5.74794C42.8701 6.13603 42.6761 6.49427 42.4223 6.82265C42.1834 7.13611 41.8924 7.40478 41.549 7.62868C41.2206 7.85258 40.8474 8.00931 40.4294 8.09887V8.14364C41.4595 8.27798 42.2805 8.70339 42.8925 9.41986C43.5046 10.1214 43.8106 10.9946 43.8106 12.0395C43.8106 12.2932 43.7882 12.5843 43.7434 12.9127C43.6986 13.2261 43.609 13.5545 43.4747 13.8978C43.3403 14.2262 43.1463 14.5546 42.8925 14.8829C42.6387 15.2113 42.2954 15.5024 41.8625 15.7561C41.4445 15.995 40.9221 16.1965 40.2951 16.3607C39.6831 16.5099 38.9441 16.5846 38.0783 16.5846H31.3161V0.598311ZM32.8387 15.286H38.0783C38.6456 15.286 39.183 15.2412 39.6905 15.1516C40.1981 15.0471 40.6459 14.868 41.034 14.6143C41.4221 14.3605 41.7281 14.0247 41.9521 13.6067C42.176 13.1739 42.2879 12.6365 42.2879 11.9947C42.2879 10.9647 41.9222 10.196 41.1908 9.68853C40.4742 9.16611 39.4367 8.90489 38.0783 8.90489H32.8387V15.286Z" fill="white"/>
<path d="M48.9605 10.3154H55.2525L52.1625 2.12081L48.9605 10.3154ZM51.3788 0.598311H53.0805L59.3502 16.5846H57.7156L55.7675 11.614H48.4902L46.5646 16.5846H44.9524L51.3788 0.598311Z" fill="white"/>
<path d="M61.2284 0.598311H62.9302L72.2451 14.1217H72.2899V0.598311H73.8125V16.5846H72.1108L62.7958 3.06118H62.7511V16.5846H61.2284V0.598311Z" fill="white"/>
<path d="M83.4074 14.2559C84.2019 14.2559 84.847 14.1685 85.3426 13.9936C86.2829 13.6583 86.753 13.0352 86.753 12.1241C86.753 11.5921 86.5198 11.1803 86.0533 10.8887C85.5868 10.6045 84.8543 10.3531 83.8557 10.1344L82.1501 9.75177C80.4736 9.37278 79.3147 8.96099 78.6732 8.5164C77.5872 7.77299 77.0442 6.6105 77.0442 5.02894C77.0442 3.58585 77.569 2.38692 78.6186 1.43215C79.6682 0.477385 81.2098 0 83.2434 0C84.9417 0 86.3886 0.451876 87.584 1.35563C88.7866 2.25209 89.4171 3.5567 89.4754 5.26945H86.2392C86.1808 4.30011 85.7581 3.61136 84.9709 3.20322C84.4461 2.93355 83.7937 2.79871 83.0138 2.79871C82.1464 2.79871 81.454 2.97363 80.9365 3.32347C80.4189 3.67331 80.1602 4.16163 80.1602 4.78842C80.1602 5.3642 80.4153 5.79421 80.9255 6.07846C81.2535 6.26795 81.9533 6.49025 83.0247 6.74534L85.8018 7.41222C87.0191 7.70375 87.9375 8.09368 88.557 8.58199C89.5192 9.33998 90.0003 10.4369 90.0003 11.8727C90.0003 13.3449 89.4354 14.5693 88.3056 15.546C87.1831 16.5153 85.5941 17 83.5386 17C81.4394 17 79.7885 16.5226 78.5858 15.5678C77.3831 14.6058 76.7818 13.2866 76.7818 11.6103H79.9962C80.0982 12.3464 80.2987 12.8967 80.5975 13.2611C81.1442 13.9243 82.0808 14.2559 83.4074 14.2559Z" fill="white"/>
<path d="M104.651 0.470096V3.32347H99.8289V16.5846H96.4396V3.32347H91.5961V0.470096H104.651Z" fill="white"/>
<path d="M114.851 13.272H108.914L107.799 16.5846H104.278L110.029 0.470096H113.834L119.541 16.5846H115.89L114.851 13.272ZM113.911 10.4952L111.899 4.15434L109.822 10.4952H113.911Z" fill="white"/>
<path d="M133 0.470096L127.61 10.528V16.5846H124.242V10.528L118.666 0.470096H122.635L125.981 7.48875L129.184 0.470096H133Z" fill="white"/>
</svg>
